<?xml version="1.0" encoding="utf-8"?>
<!-- Generator: Adobe Illustrator 26.0.2, SVG Export Plug-In . SVG Version: 6.00 Build 0)  -->
<svg version="1.1" id="Layer_1" xmlns="http://www.w3.org/2000/svg" xmlns:xlink="http://www.w3.org/1999/xlink" x="0px" y="0px"
	 viewBox="0 0 186.7 190.8" style="enable-background:new 0 0 186.7 190.8;" xml:space="preserve">
<style type="text/css">
	.st0{fill:url(#SVGID_1_);}
	.st1{fill:url(#SVGID_00000075139284313335124390000001262918217272045488_);}
	.st2{fill:url(#SVGID_00000041992500406860063480000010338199583016637849_);}
	.st3{fill:url(#SVGID_00000055688958717465876770000014155343905453708198_);}
	.st4{fill:url(#SVGID_00000053514969202399433920000014040187322852201362_);}
	.st5{fill:url(#SVGID_00000033341398727123763950000013794998823517158326_);}
	.st6{fill:url(#SVGID_00000031173025237870228310000010802418578715781763_);}
	.st7{fill:url(#SVGID_00000054979167666161910370000007515770186135422886_);}
	
		.st8{clip-path:url(#SVGID_00000026142672301024632670000009670463605191189664_);fill:url(#SVGID_00000156576884703788543870000016352951788485586561_);}
	
		.st9{clip-path:url(#SVGID_00000049911619279928079630000006667215842267622557_);fill:url(#SVGID_00000036251819649493793110000013847986876331948422_);}
	
		.st10{clip-path:url(#SVGID_00000109717314232685808570000008230113344537106589_);fill:url(#SVGID_00000014623584471437501320000004716873698321831040_);}
	
		.st11{clip-path:url(#SVGID_00000081611537805734491750000002507974654431360386_);fill:url(#SVGID_00000010300947200319956330000005598657801414633365_);}
	
		.st12{clip-path:url(#SVGID_00000018231692721064789070000010385287249134346140_);fill:url(#SVGID_00000084513159733265675860000013989216790822255782_);}
	
		.st13{clip-path:url(#SVGID_00000016076788174451925270000003754706777813548441_);fill:url(#SVGID_00000170994628513798874360000010574197697723333052_);}
	
		.st14{clip-path:url(#SVGID_00000133511197622467908160000008680903470494935194_);fill:url(#SVGID_00000036936184651748540340000016583009996623170467_);}
	
		.st15{clip-path:url(#SVGID_00000045588433553901621290000000861045668229993151_);fill:url(#SVGID_00000093890369406943794510000001189879285229141683_);}
	
		.st16{clip-path:url(#SVGID_00000060026356553561054200000000563955619136504994_);fill:url(#SVGID_00000071538252598208049300000005266170332685235851_);}
	.st17{fill:#FFFFFF;}
</style>
<g>
	<g>
		<linearGradient id="SVGID_1_" gradientUnits="userSpaceOnUse" x1="12.3795" y1="162.9935" x2="12.3795" y2="190.2963">
			<stop  offset="0" style="stop-color:#01B4E5"/>
			<stop  offset="1" style="stop-color:#3861AD"/>
		</linearGradient>
		<path class="st0" d="M0,190.4V158h11.1c4,0,7.2,1.3,9.8,3.8c2.6,2.5,3.8,5.8,3.8,9.7v5.4c0,4-1.3,7.2-3.8,9.7
			c-2.6,2.5-5.8,3.8-9.8,3.8H0z M6.5,163v22.4h4.3c2.3,0,4.2-0.8,5.5-2.4c1.3-1.6,2-3.6,2-6.2v-5.4c0-2.5-0.7-4.5-2-6.1
			c-1.3-1.6-3.1-2.4-5.5-2.4H6.5z"/>
		
			<linearGradient id="SVGID_00000047056447874368408050000008066175580554293638_" gradientUnits="userSpaceOnUse" x1="39.6521" y1="162.9935" x2="39.6521" y2="190.2963">
			<stop  offset="0" style="stop-color:#01B4E5"/>
			<stop  offset="1" style="stop-color:#3861AD"/>
		</linearGradient>
		<path style="fill:url(#SVGID_00000047056447874368408050000008066175580554293638_);" d="M44,186.9c-0.7,1.3-1.7,2.2-2.8,2.9
			c-1.1,0.7-2.5,1-3.9,1c-2.5,0-4.5-0.8-6-2.4c-1.4-1.6-2.1-4.1-2.1-7.6v-14.5h6.5v14.6c0,1.8,0.3,3,0.9,3.8
			c0.6,0.8,1.5,1.1,2.6,1.1c1,0,1.9-0.2,2.7-0.5c0.7-0.3,1.3-0.8,1.8-1.5v-17.5h6.5v24.1h-5.5L44,186.9z"/>
		
			<linearGradient id="SVGID_00000168803519056126625210000009522410965798458247_" gradientUnits="userSpaceOnUse" x1="59.9621" y1="162.9935" x2="59.9621" y2="190.2963">
			<stop  offset="0" style="stop-color:#01B4E5"/>
			<stop  offset="1" style="stop-color:#3861AD"/>
		</linearGradient>
		<path style="fill:url(#SVGID_00000168803519056126625210000009522410965798458247_);" d="M62.8,160.4v5.9h4v4.6h-4v12.3
			c0,0.9,0.2,1.6,0.6,2c0.4,0.4,0.9,0.6,1.6,0.6c0.3,0,0.6,0,0.9-0.1c0.2,0,0.5-0.1,0.9-0.2l0.6,4.7c-0.7,0.2-1.3,0.4-1.9,0.5
			c-0.6,0.1-1.3,0.2-2,0.2c-2.2,0-4-0.6-5.2-1.8c-1.2-1.2-1.8-3.2-1.8-5.9v-12.3h-3.5v-4.6h3.5v-5.9H62.8z"/>
		
			<linearGradient id="SVGID_00000163751328683475033220000009812743028312341637_" gradientUnits="userSpaceOnUse" x1="84.1097" y1="162.9935" x2="84.1097" y2="190.2963">
			<stop  offset="0" style="stop-color:#01B4E5"/>
			<stop  offset="1" style="stop-color:#3861AD"/>
		</linearGradient>
		<path style="fill:url(#SVGID_00000163751328683475033220000009812743028312341637_);" d="M97.1,158v21.5c0,3.6-1.2,6.4-3.6,8.4
			c-2.4,2-5.5,3-9.4,3c-3.9,0-7-1-9.4-3c-2.4-2-3.6-4.8-3.6-8.4V158h6.5v21.5c0,2.1,0.6,3.7,1.7,4.8c1.1,1.1,2.7,1.6,4.7,1.6
			c2,0,3.6-0.5,4.8-1.6c1.2-1.1,1.7-2.7,1.7-4.8V158H97.1z"/>
		
			<linearGradient id="SVGID_00000018955121556334914080000018266048386501674624_" gradientUnits="userSpaceOnUse" x1="112.6169" y1="162.9935" x2="112.6169" y2="190.2963">
			<stop  offset="0" style="stop-color:#01B4E5"/>
			<stop  offset="1" style="stop-color:#3861AD"/>
		</linearGradient>
		<path style="fill:url(#SVGID_00000018955121556334914080000018266048386501674624_);" d="M108.2,166.3l0.3,3.4
			c0.8-1.2,1.8-2.2,3-2.9c1.2-0.7,2.5-1,3.9-1c2.4,0,4.3,0.8,5.7,2.3c1.4,1.5,2,3.9,2,7.2v15h-6.5v-15.1c0-1.6-0.3-2.8-1-3.4
			c-0.7-0.7-1.6-1-3-1c-0.9,0-1.6,0.2-2.3,0.5c-0.7,0.3-1.3,0.8-1.7,1.5v17.5h-6.5v-24.1H108.2z"/>
		
			<linearGradient id="SVGID_00000109724235310657310100000005594761952845459611_" gradientUnits="userSpaceOnUse" x1="131.5365" y1="171.3807" x2="131.5365" y2="190.3175">
			<stop  offset="0" style="stop-color:#01B4E5"/>
			<stop  offset="1" style="stop-color:#3861AD"/>
		</linearGradient>
		<path style="fill:url(#SVGID_00000109724235310657310100000005594761952845459611_);" d="M134.8,190.4h-6.5v-24.1h6.5V190.4z"/>
		
			<linearGradient id="SVGID_00000160178255693338176880000002535671933051214767_" gradientUnits="userSpaceOnUse" x1="150.4783" y1="162.9935" x2="150.4783" y2="190.2963">
			<stop  offset="0" style="stop-color:#01B4E5"/>
			<stop  offset="1" style="stop-color:#3861AD"/>
		</linearGradient>
		<path style="fill:url(#SVGID_00000160178255693338176880000002535671933051214767_);" d="M139.1,178.1c0-3.6,1-6.5,3-8.8
			c2-2.3,4.8-3.4,8.3-3.4c3.6,0,6.3,1.1,8.4,3.4c2,2.3,3,5.2,3,8.8v0.5c0,3.6-1,6.6-3,8.8c-2,2.3-4.8,3.4-8.3,3.4
			c-3.6,0-6.3-1.1-8.4-3.4c-2-2.3-3-5.2-3-8.8V178.1z M145.6,178.6c0,2.2,0.4,3.9,1.2,5.3c0.8,1.3,2,2,3.7,2c1.7,0,2.9-0.7,3.7-2
			c0.8-1.3,1.2-3.1,1.2-5.3v-0.5c0-2.1-0.4-3.9-1.2-5.2s-2-2-3.7-2c-1.7,0-2.9,0.7-3.7,2c-0.8,1.4-1.2,3.1-1.2,5.2V178.6z"/>
		
			<linearGradient id="SVGID_00000135676231398067446880000016058723061030471305_" gradientUnits="userSpaceOnUse" x1="176.2164" y1="162.9935" x2="176.2164" y2="190.2963">
			<stop  offset="0" style="stop-color:#01B4E5"/>
			<stop  offset="1" style="stop-color:#3861AD"/>
		</linearGradient>
		<path style="fill:url(#SVGID_00000135676231398067446880000016058723061030471305_);" d="M171.8,166.3l0.3,3.4
			c0.8-1.2,1.8-2.2,3-2.9c1.2-0.7,2.5-1,3.9-1c2.4,0,4.3,0.8,5.7,2.3c1.4,1.5,2,3.9,2,7.2v15h-6.5v-15.1c0-1.6-0.3-2.8-1-3.4
			c-0.7-0.7-1.6-1-3-1c-0.9,0-1.6,0.2-2.3,0.5c-0.7,0.3-1.3,0.8-1.7,1.5v17.5h-6.5v-24.1H171.8z"/>
	</g>
	<g>
		<g>
			<defs>
				<path id="SVGID_00000110455105740519507370000013458370220109649319_" d="M125.8,90.3c-18.6,10.8-37.2,21.5-56,32.3l22.9,13.2
					c11.9-6.9,23.6-13.7,35.5-20.5c8.1-4.7,16.2-9.5,24.3-14.3l-22.9-13.2C128.3,88.7,127.1,89.6,125.8,90.3"/>
			</defs>
			<clipPath id="SVGID_00000044174987043936851780000016911078387363460483_">
				<use xlink:href="#SVGID_00000110455105740519507370000013458370220109649319_"  style="overflow:visible;"/>
			</clipPath>
			
				<linearGradient id="SVGID_00000071529485942716550690000007251072332546759336_" gradientUnits="userSpaceOnUse" x1="4.434536e-02" y1="195.7277" x2="0.889" y2="195.7277" gradientTransform="matrix(97.86 0 0 97.86 65.4223 -19042.0625)">
				<stop  offset="0" style="stop-color:#01B4E5"/>
				<stop  offset="1" style="stop-color:#3861AD"/>
			</linearGradient>
			
				<rect x="69.8" y="87.9" style="clip-path:url(#SVGID_00000044174987043936851780000016911078387363460483_);fill:url(#SVGID_00000071529485942716550690000007251072332546759336_);" width="82.7" height="47.9"/>
		</g>
		<g>
			<defs>
				<polygon id="SVGID_00000023262217027418405610000014196989905144477076_" points="34.3,33.8 34.3,101.9 57.2,88.9 57.2,46.3 
					57.2,20.6 				"/>
			</defs>
			<clipPath id="SVGID_00000049943368111501572590000007587994935712440988_">
				<use xlink:href="#SVGID_00000023262217027418405610000014196989905144477076_"  style="overflow:visible;"/>
			</clipPath>
			
				<linearGradient id="SVGID_00000037677219433035459090000017734675365294755470_" gradientUnits="userSpaceOnUse" x1="0.3998" y1="195.7895" x2="1.2444" y2="195.7895" gradientTransform="matrix(27.18 0 0 27.18 23.4223 -5260.3452)">
				<stop  offset="0" style="stop-color:#01B4E5"/>
				<stop  offset="1" style="stop-color:#3861AD"/>
			</linearGradient>
			
				<rect x="34.3" y="20.6" style="clip-path:url(#SVGID_00000049943368111501572590000007587994935712440988_);fill:url(#SVGID_00000037677219433035459090000017734675365294755470_);" width="23" height="81.3"/>
		</g>
		<g>
			<defs>
				<path id="SVGID_00000018928556438838380980000013825512805727386288_" d="M93.9,25.6l58.5,33.9V33.7
					c-12.7-7.4-25.4-14.7-38.1-22c-6.9-4-13.9-7.8-20.8-11.7C93.7,8.5,93.8,17.1,93.9,25.6"/>
			</defs>
			<clipPath id="SVGID_00000005232621362718196190000000264100945083191218_">
				<use xlink:href="#SVGID_00000018928556438838380980000013825512805727386288_"  style="overflow:visible;"/>
			</clipPath>
			
				<linearGradient id="SVGID_00000065066849564839193170000016451449303895513767_" gradientUnits="userSpaceOnUse" x1="-5.226737e-04" y1="195.9007" x2="0.8441" y2="195.9007" gradientTransform="matrix(69.67 0 0 69.67 93.5823 -13618.6484)">
				<stop  offset="0" style="stop-color:#01B4E5"/>
				<stop  offset="1" style="stop-color:#3861AD"/>
			</linearGradient>
			
				<rect x="93.5" style="clip-path:url(#SVGID_00000005232621362718196190000000264100945083191218_);fill:url(#SVGID_00000065066849564839193170000016451449303895513767_);" width="58.8" height="59.5"/>
		</g>
		<g>
			<defs>
				<path id="SVGID_00000063599791741371984440000012155285116392571832_" d="M68,82.9l25.7,15l25.7-15l-25.6-15
					C85.2,72.9,76.6,77.9,68,82.9"/>
			</defs>
			<clipPath id="SVGID_00000029014980669417756880000010530890792949427623_">
				<use xlink:href="#SVGID_00000063599791741371984440000012155285116392571832_"  style="overflow:visible;"/>
			</clipPath>
			
				<linearGradient id="SVGID_00000152236276659380507010000012465008453250475664_" gradientUnits="userSpaceOnUse" x1="7.655399e-02" y1="195.7495" x2="0.9211" y2="195.7495" gradientTransform="matrix(60.88 0 0 60.88 63.3623 -11834.333)">
				<stop  offset="0" style="stop-color:#01B4E5"/>
				<stop  offset="1" style="stop-color:#3861AD"/>
			</linearGradient>
			
				<rect x="68" y="67.9" style="clip-path:url(#SVGID_00000029014980669417756880000010530890792949427623_);fill:url(#SVGID_00000152236276659380507010000012465008453250475664_);" width="51.4" height="30"/>
		</g>
		<g>
			<defs>
				<path id="SVGID_00000008145732630835862250000013233745288878655124_" d="M67.7,53.7V62c0.1,7,0.2,13.9,0.3,20.9
					c8.6-5,17.2-10,25.8-15c0-9.7,0-19.3,0.1-29L67.7,53.7z"/>
			</defs>
			<clipPath id="SVGID_00000134937874214904775350000007877607329708591760_">
				<use xlink:href="#SVGID_00000008145732630835862250000013233745288878655124_"  style="overflow:visible;"/>
			</clipPath>
			
				<linearGradient id="SVGID_00000054234403470717574310000009962723076126927524_" gradientUnits="userSpaceOnUse" x1="0.1522" y1="195.7969" x2="0.9968" y2="195.7969" gradientTransform="matrix(30.96 0 0 30.96 63.0223 -6000.9541)">
				<stop  offset="0" style="stop-color:#01B4E5"/>
				<stop  offset="1" style="stop-color:#3861AD"/>
			</linearGradient>
			
				<rect x="67.7" y="38.9" style="clip-path:url(#SVGID_00000134937874214904775350000007877607329708591760_);fill:url(#SVGID_00000054234403470717574310000009962723076126927524_);" width="26.2" height="44"/>
		</g>
		<g>
			<defs>
				<path id="SVGID_00000109726064881626795140000011436414436941882777_" d="M93.8,67.9l25.6,15V53.6L93.9,38.9
					C93.8,48.6,93.8,58.2,93.8,67.9"/>
			</defs>
			<clipPath id="SVGID_00000171690194073757928090000000889833242722004643_">
				<use xlink:href="#SVGID_00000109726064881626795140000011436414436941882777_"  style="overflow:visible;"/>
			</clipPath>
			
				<linearGradient id="SVGID_00000111874676387126210580000011495052567571770763_" gradientUnits="userSpaceOnUse" x1="-2.890955e-03" y1="195.7961" x2="0.8417" y2="195.7961" gradientTransform="matrix(30.33 0 0 30.33 93.9123 -5877.5928)">
				<stop  offset="0" style="stop-color:#01B4E5"/>
				<stop  offset="1" style="stop-color:#3861AD"/>
			</linearGradient>
			
				<rect x="93.8" y="38.9" style="clip-path:url(#SVGID_00000171690194073757928090000000889833242722004643_);fill:url(#SVGID_00000111874676387126210580000011495052567571770763_);" width="25.6" height="44"/>
		</g>
		<g>
			<defs>
				<path id="SVGID_00000062157112775520822160000009479138648838797720_" d="M93.5,0L67.9,14.7v26l26-15.1
					C93.8,17.1,93.7,8.5,93.5,0z"/>
			</defs>
			<clipPath id="SVGID_00000088854555044681282060000006037839369692491917_">
				<use xlink:href="#SVGID_00000062157112775520822160000009479138648838797720_"  style="overflow:visible;"/>
			</clipPath>
			
				<linearGradient id="SVGID_00000145042288304142922470000016662523388048680354_" gradientUnits="userSpaceOnUse" x1="0.1523" y1="196.0391" x2="0.9969" y2="196.0391" gradientTransform="matrix(30.8 0 0 30.8 63.1623 -6017.665)">
				<stop  offset="0" style="stop-color:#01B4E5"/>
				<stop  offset="1" style="stop-color:#3861AD"/>
			</linearGradient>
			
				<rect x="67.9" y="0" style="clip-path:url(#SVGID_00000088854555044681282060000006037839369692491917_);fill:url(#SVGID_00000145042288304142922470000016662523388048680354_);" width="26" height="40.7"/>
		</g>
		<g>
			<defs>
				<polygon id="SVGID_00000057867700762679027430000006059532109335541422_" points="34.3,101.9 60.1,117 82.4,104.1 57.2,88.9 
									"/>
			</defs>
			<clipPath id="SVGID_00000120528128158727616370000013634832558568201631_">
				<use xlink:href="#SVGID_00000057867700762679027430000006059532109335541422_"  style="overflow:visible;"/>
			</clipPath>
			
				<linearGradient id="SVGID_00000065070980569181677620000001724626801667640472_" gradientUnits="userSpaceOnUse" x1="0.1907" y1="195.6788" x2="1.0353" y2="195.6788" gradientTransform="matrix(56.99 0 0 56.99 23.4223 -11048.752)">
				<stop  offset="0" style="stop-color:#01B4E5"/>
				<stop  offset="1" style="stop-color:#3861AD"/>
			</linearGradient>
			
				<rect x="34.3" y="88.9" style="clip-path:url(#SVGID_00000120528128158727616370000013634832558568201631_);fill:url(#SVGID_00000065070980569181677620000001724626801667640472_);" width="48.1" height="28.1"/>
		</g>
		<g>
			<defs>
				<polygon id="SVGID_00000088120826997705878210000012797484755791762069_" points="129.6,87.9 152.4,101 152.4,72.1 129.6,58.9 
									"/>
			</defs>
			<clipPath id="SVGID_00000088102355495179612650000005229267074830372284_">
				<use xlink:href="#SVGID_00000088120826997705878210000012797484755791762069_"  style="overflow:visible;"/>
			</clipPath>
			
				<linearGradient id="SVGID_00000079454258336141598440000016565982730741960110_" gradientUnits="userSpaceOnUse" x1="-0.2461" y1="195.6619" x2="0.5986" y2="195.6619" gradientTransform="matrix(27.07 0 0 27.07 136.2123 -5216.6133)">
				<stop  offset="0" style="stop-color:#01B4E5"/>
				<stop  offset="1" style="stop-color:#3861AD"/>
			</linearGradient>
			
				<rect x="129.6" y="58.9" style="clip-path:url(#SVGID_00000088102355495179612650000005229267074830372284_);fill:url(#SVGID_00000079454258336141598440000016565982730741960110_);" width="22.9" height="42.2"/>
		</g>
		<path class="st17" d="M60.9,55.3"/>
	</g>
</g>
</svg>
