<svg xmlns="http://www.w3.org/2000/svg" xmlns:xlink="http://www.w3.org/1999/xlink" viewBox="0 0 186.7 205.84"><defs><style>.cls-1{fill:url(#linear-gradient);}.cls-2{fill:url(#linear-gradient-2);}.cls-3{fill:url(#linear-gradient-3);}.cls-4{fill:url(#linear-gradient-4);}.cls-5{fill:url(#linear-gradient-5);}.cls-6{fill:url(#linear-gradient-6);}.cls-7{fill:url(#linear-gradient-7);}.cls-8{fill:url(#linear-gradient-8);}.cls-9{fill:url(#linear-gradient-9);}.cls-10{fill:url(#linear-gradient-10);}.cls-11{fill:url(#linear-gradient-11);}.cls-12{fill:url(#linear-gradient-12);}.cls-13{fill:url(#linear-gradient-13);}.cls-14{fill:url(#linear-gradient-14);}.cls-15{fill:url(#linear-gradient-15);}.cls-16{fill:url(#linear-gradient-16);}.cls-17{fill:url(#linear-gradient-17);}</style><linearGradient id="linear-gradient" x1="65.42" y1="510.68" x2="163.28" y2="510.68" gradientTransform="matrix(1, 0, 0, -1, 0, 643.11)" gradientUnits="userSpaceOnUse"><stop offset="0" stop-color="#01b4e5"/><stop offset="1" stop-color="#3861ad"/></linearGradient><linearGradient id="linear-gradient-2" x1="23.42" y1="570.63" x2="50.6" y2="570.63" xlink:href="#linear-gradient"/><linearGradient id="linear-gradient-3" x1="93.58" y1="607.88" x2="163.25" y2="607.88" xlink:href="#linear-gradient"/><linearGradient id="linear-gradient-4" x1="63.36" y1="544.96" x2="124.24" y2="544.96" xlink:href="#linear-gradient"/><linearGradient id="linear-gradient-5" x1="63.02" y1="570.98" x2="93.98" y2="570.98" xlink:href="#linear-gradient"/><linearGradient id="linear-gradient-6" x1="93.91" y1="571" x2="124.24" y2="571" xlink:href="#linear-gradient"/><linearGradient id="linear-gradient-7" x1="63.16" y1="619.03" x2="93.96" y2="619.03" xlink:href="#linear-gradient"/><linearGradient id="linear-gradient-8" x1="23.42" y1="521.18" x2="80.41" y2="521.18" xlink:href="#linear-gradient"/><linearGradient id="linear-gradient-9" x1="136.21" y1="548.44" x2="163.28" y2="548.44" xlink:href="#linear-gradient"/><linearGradient id="linear-gradient-10" x1="9.93" y1="459.97" x2="9.93" y2="437.11" xlink:href="#linear-gradient"/><linearGradient id="linear-gradient-11" x1="34.19" y1="459.97" x2="34.19" y2="437.11" xlink:href="#linear-gradient"/><linearGradient id="linear-gradient-12" x1="56.1" y1="459.97" x2="56.1" y2="437.11" xlink:href="#linear-gradient"/><linearGradient id="linear-gradient-13" x1="88.36" y1="459.97" x2="88.36" y2="437.11" xlink:href="#linear-gradient"/><linearGradient id="linear-gradient-14" x1="114.11" y1="459.97" x2="114.11" y2="437.11" xlink:href="#linear-gradient"/><linearGradient id="linear-gradient-15" x1="132.91" y1="459.97" x2="132.91" y2="437.11" xlink:href="#linear-gradient"/><linearGradient id="linear-gradient-16" x1="150.66" y1="459.97" x2="150.66" y2="437.11" xlink:href="#linear-gradient"/><linearGradient id="linear-gradient-17" x1="176.22" y1="459.97" x2="176.22" y2="437.11" xlink:href="#linear-gradient"/></defs><g id="Layer_2" data-name="Layer 2"><g id="Layer_1-2" data-name="Layer 1"><path class="cls-1" d="M163.28,119.62c-9.6,5.63-19.17,11.3-28.78,16.88-14,8.11-27.94,16.16-42,24.3L65.42,145.21c22.26-12.85,44.29-25.57,66.3-38.3,1.53-.88,3-1.9,4.45-2.86Z"/><path class="cls-2" d="M23.42,120.59V40.05L50.6,24.36V105.3Z"/><path class="cls-3" d="M93.58,0c8.2,4.62,16.44,9.18,24.6,13.87q22.56,12.94,45.07,26V70.46L94,30.34Q93.78,15.18,93.58,0Z"/><path class="cls-4" d="M124.24,98.17,93.76,115.91,63.36,98.2q15.3-8.9,30.55-17.81Z"/><path class="cls-5" d="M93.91,80.39Q78.64,89.3,63.36,98.2c-.11-8.26-.24-16.51-.34-24.77v-9.9L94,46.05Q93.93,63.23,93.91,80.39Z"/><path class="cls-6" d="M93.91,80.39q0-17.16,0-34.34l30.28,17.39V98.17Z"/><path class="cls-7" d="M93.58,0q.21,15.17.38,30.34L63.16,48.16V17.38Z"/><path class="cls-8" d="M23.42,120.59,50.56,105.3l29.85,18L54,138.56Z"/><path class="cls-9" d="M163.28,119.62l-27.07-15.57V69.71l27.07,15.62Z"/><path class="cls-10" d="M14.92,179.32a13.56,13.56,0,0,0-5.86-1.16H0v27.37H9.06A12.93,12.93,0,0,0,15,204.31a8.21,8.21,0,0,0,3.64-3.43,10.49,10.49,0,0,0,1.22-5.15V188a10.51,10.51,0,0,0-1.26-5.33A8.09,8.09,0,0,0,14.92,179.32Zm-.4,16.58a4.36,4.36,0,0,1-1.39,3.47,5.81,5.81,0,0,1-3.94,1.22h-4V183.14h4a5.75,5.75,0,0,1,3.93,1.22,4.4,4.4,0,0,1,1.4,3.47Z"/><path class="cls-11" d="M39,178.16h5.15v17.48a11.88,11.88,0,0,1-1.17,5.5,8,8,0,0,1-3.43,3.48,12.85,12.85,0,0,1-10.81,0,7.91,7.91,0,0,1-3.41-3.48,12,12,0,0,1-1.17-5.5V178.16h5.17v17.59a5,5,0,0,0,1.25,3.65,4.76,4.76,0,0,0,3.56,1.3,4.82,4.82,0,0,0,3.59-1.3A5.05,5.05,0,0,0,39,195.75Z"/><polygon class="cls-12" points="46.07 178.17 66.13 178.17 66.13 183.14 58.68 183.14 58.68 205.54 53.52 205.54 53.52 183.14 46.07 183.14 46.07 178.17"/><path class="cls-13" d="M93.19,178.16h5.17v17.48a11.89,11.89,0,0,1-1.19,5.5,7.88,7.88,0,0,1-3.42,3.48,12.85,12.85,0,0,1-10.81,0,7.91,7.91,0,0,1-3.41-3.48,12,12,0,0,1-1.17-5.5V178.16h5.16v17.59a5,5,0,0,0,1.26,3.65,4.69,4.69,0,0,0,3.57,1.3,4.77,4.77,0,0,0,3.58-1.3,5,5,0,0,0,1.27-3.65Z"/><polygon class="cls-14" points="119.66 178.17 124.59 178.17 124.59 205.52 118.25 205.52 108.55 185.79 108.55 205.52 103.62 205.52 103.62 178.17 109.93 178.17 119.66 198.2 119.66 178.17"/><rect class="cls-15" x="130.24" y="178.16" width="5.34" height="27.37"/><path class="cls-16" d="M155.9,179.14a11.59,11.59,0,0,0-10.48,0,8.67,8.67,0,0,0-3.51,3.54,10.83,10.83,0,0,0-1.24,5.3v7.75a10.89,10.89,0,0,0,1.24,5.33,8.71,8.71,0,0,0,3.51,3.53,11.59,11.59,0,0,0,10.48,0,8.71,8.71,0,0,0,3.51-3.53,11,11,0,0,0,1.25-5.33V188a10.84,10.84,0,0,0-1.25-5.3A8.67,8.67,0,0,0,155.9,179.14Zm-.59,16.72a5.42,5.42,0,0,1-.57,2.53,4.18,4.18,0,0,1-1.63,1.68,5.36,5.36,0,0,1-4.9,0,4.1,4.1,0,0,1-1.62-1.68,5.31,5.31,0,0,1-.58-2.53v-8a5.27,5.27,0,0,1,.58-2.52,4.08,4.08,0,0,1,1.62-1.7,5.36,5.36,0,0,1,4.9,0,4.15,4.15,0,0,1,1.63,1.69,5.35,5.35,0,0,1,.57,2.52Z"/><polygon class="cls-17" points="186.71 178.17 186.71 205.52 180.36 205.52 170.67 185.79 170.67 205.52 165.74 205.52 165.74 178.17 172.04 178.17 181.78 198.21 181.78 178.17 186.71 178.17"/></g></g></svg>