<svg xmlns="http://www.w3.org/2000/svg" viewBox="0 0 509.53 160.8"><defs><style>.cls-1{fill:#fff;}</style></defs><g id="Layer_2" data-name="Layer 2"><g id="Layer_1-2" data-name="Layer 1"><g id="Layer_2-2" data-name="Layer 2"><g id="Layer_1-2-2" data-name="Layer 1-2"><path class="cls-1" d="M139.86,119.62c-9.6,5.63-19.17,11.3-28.78,16.88-14,8.11-27.94,16.16-42,24.3L42,145.21c22.26-12.85,44.29-25.57,66.3-38.3,1.53-.88,3-1.9,4.45-2.86Z"/><path class="cls-1" d="M0,120.59V40.05L27.18,24.36V105.3Z"/><path class="cls-1" d="M70.16,0c8.2,4.62,16.44,9.18,24.6,13.87q22.56,12.94,45.07,26V70.46L70.54,30.34Q70.35,15.18,70.16,0Z"/><path class="cls-1" d="M100.82,98.17,70.34,115.91,39.94,98.2q15.29-8.9,30.55-17.81Z"/><path class="cls-1" d="M70.49,80.39Q55.22,89.3,39.94,98.2c-.11-8.26-.24-16.51-.34-24.77v-9.9l31-17.48Q70.51,63.23,70.49,80.39Z"/><path class="cls-1" d="M70.49,80.39q0-17.16.05-34.34l30.28,17.39V98.17Z"/><path class="cls-1" d="M70.16,0q.2,15.17.38,30.34L39.74,48.16V17.38Z"/><path class="cls-1" d="M0,120.59,27.14,105.3,57,123.3,30.6,138.56Z"/><path class="cls-1" d="M139.86,119.62l-27.07-15.57V69.71l27.07,15.62Z"/><path class="cls-1" d="M187.23,56.88a25.38,25.38,0,0,0-11-2.16h-17v51.35h17a24.67,24.67,0,0,0,11.15-2.29,15.5,15.5,0,0,0,6.83-6.43,19.76,19.76,0,0,0,2.28-9.68V73.13a19.81,19.81,0,0,0-2.36-10A15.26,15.26,0,0,0,187.23,56.88ZM186.48,88a8.22,8.22,0,0,1-2.62,6.5c-1.74,1.53-4.2,2.3-7.38,2.29H169V64.05h7.52q4.77,0,7.38,2.29a8.24,8.24,0,0,1,2.62,6.51Z"/><path class="cls-1" d="M232.45,54.72h9.68V87.5a22.37,22.37,0,0,1-2.21,10.33,14.92,14.92,0,0,1-6.43,6.53,24,24,0,0,1-20.28,0,15,15,0,0,1-6.4-6.53,22.48,22.48,0,0,1-2.19-10.33V54.72h9.69v33a9.4,9.4,0,0,0,2.36,6.85A8.82,8.82,0,0,0,223.34,97a9,9,0,0,0,6.73-2.44,9.36,9.36,0,0,0,2.38-6.85Z"/><polygon class="cls-1" points="245.66 54.73 283.31 54.73 283.31 64.05 269.32 64.05 269.32 106.08 259.64 106.08 259.64 64.05 245.66 64.05 245.66 54.73"/><path class="cls-1" d="M334.08,54.72h9.69V87.5a22.23,22.23,0,0,1-2.22,10.33,14.89,14.89,0,0,1-6.42,6.53,24.07,24.07,0,0,1-20.29,0,14.88,14.88,0,0,1-6.39-6.53,22.48,22.48,0,0,1-2.19-10.33V54.72h9.68v33a9.45,9.45,0,0,0,2.36,6.85A8.87,8.87,0,0,0,325,97a9,9,0,0,0,6.72-2.44,9.36,9.36,0,0,0,2.38-6.85Z"/><polygon class="cls-1" points="383.74 54.73 392.99 54.73 392.99 106.04 381.1 106.04 362.9 69.02 362.9 106.04 353.65 106.04 353.65 54.73 365.48 54.73 383.74 92.32 383.74 54.73"/><rect class="cls-1" x="403.59" y="54.72" width="10.02" height="51.35"/><path class="cls-1" d="M451.74,56.55a21.78,21.78,0,0,0-19.67,0,16.27,16.27,0,0,0-6.59,6.64,20.55,20.55,0,0,0-2.33,9.94V87.67a20.56,20.56,0,0,0,2.33,10,16.33,16.33,0,0,0,6.59,6.64,21.84,21.84,0,0,0,19.67,0,16.37,16.37,0,0,0,6.58-6.64,20.46,20.46,0,0,0,2.34-10V73.13a20.45,20.45,0,0,0-2.34-9.94A16.25,16.25,0,0,0,451.74,56.55Zm-1.12,31.37a10,10,0,0,1-1.07,4.74,7.64,7.64,0,0,1-3.06,3.16,10,10,0,0,1-9.18,0,7.74,7.74,0,0,1-3.05-3.16,10,10,0,0,1-1.08-4.74v-15a10.07,10.07,0,0,1,1.08-4.73A7.63,7.63,0,0,1,437.31,65a10,10,0,0,1,9.18,0,7.64,7.64,0,0,1,3.06,3.16,9.94,9.94,0,0,1,1.07,4.73Z"/><polygon class="cls-1" points="509.53 54.73 509.53 106.04 497.63 106.04 479.44 69.02 479.44 106.04 470.19 106.04 470.19 54.73 482.02 54.73 500.28 92.33 500.28 54.73 509.53 54.73"/></g></g></g></g></svg>