<svg xmlns="http://www.w3.org/2000/svg" xmlns:xlink="http://www.w3.org/1999/xlink" viewBox="0 0 139.86 160.8"><defs><style>.cls-1{fill:url(#linear-gradient);}.cls-2{fill:url(#linear-gradient-2);}.cls-3{fill:url(#linear-gradient-3);}.cls-4{fill:url(#linear-gradient-4);}.cls-5{fill:url(#linear-gradient-5);}.cls-6{fill:url(#linear-gradient-6);}.cls-7{fill:url(#linear-gradient-7);}.cls-8{fill:url(#linear-gradient-8);}.cls-9{fill:url(#linear-gradient-9);}</style><linearGradient id="linear-gradient" x1="42" y1="449.06" x2="139.86" y2="449.06" gradientTransform="matrix(1, 0, 0, -1, 0, 581.49)" gradientUnits="userSpaceOnUse"><stop offset="0" stop-color="#01b4e5"/><stop offset="1" stop-color="#3861ad"/></linearGradient><linearGradient id="linear-gradient-2" x1="0" y1="509.01" x2="27.18" y2="509.01" xlink:href="#linear-gradient"/><linearGradient id="linear-gradient-3" x1="70.16" y1="546.26" x2="139.83" y2="546.26" xlink:href="#linear-gradient"/><linearGradient id="linear-gradient-4" x1="39.94" y1="483.34" x2="100.82" y2="483.34" xlink:href="#linear-gradient"/><linearGradient id="linear-gradient-5" x1="39.6" y1="509.36" x2="70.56" y2="509.36" xlink:href="#linear-gradient"/><linearGradient id="linear-gradient-6" x1="70.49" y1="509.38" x2="100.82" y2="509.38" xlink:href="#linear-gradient"/><linearGradient id="linear-gradient-7" x1="39.74" y1="557.41" x2="70.54" y2="557.41" xlink:href="#linear-gradient"/><linearGradient id="linear-gradient-8" x1="0" y1="459.56" x2="56.99" y2="459.56" xlink:href="#linear-gradient"/><linearGradient id="linear-gradient-9" x1="112.79" y1="486.82" x2="139.86" y2="486.82" xlink:href="#linear-gradient"/></defs><g id="Layer_2" data-name="Layer 2"><g id="Layer_1-2" data-name="Layer 1"><path class="cls-1" d="M139.86,119.62c-9.6,5.63-19.17,11.3-28.78,16.88-14,8.11-27.94,16.16-42,24.3L42,145.21c22.26-12.85,44.29-25.57,66.3-38.3,1.53-.88,3-1.9,4.45-2.86Z"/><path class="cls-2" d="M0,120.59V40.05L27.18,24.36V105.3Z"/><path class="cls-3" d="M70.16,0c8.2,4.62,16.44,9.18,24.6,13.87q22.56,12.94,45.07,26V70.46L70.54,30.34Q70.35,15.18,70.16,0Z"/><path class="cls-4" d="M100.82,98.17,70.34,115.91,39.94,98.2q15.29-8.9,30.55-17.81Z"/><path class="cls-5" d="M70.49,80.39Q55.22,89.3,39.94,98.2c-.11-8.26-.24-16.51-.34-24.77v-9.9l31-17.48Q70.51,63.23,70.49,80.39Z"/><path class="cls-6" d="M70.49,80.39q0-17.16.05-34.34l30.28,17.39V98.17Z"/><path class="cls-7" d="M70.16,0q.2,15.17.38,30.34L39.74,48.16V17.38Z"/><path class="cls-8" d="M0,120.59,27.14,105.3,57,123.3,30.6,138.56Z"/><path class="cls-9" d="M139.86,119.62l-27.07-15.57V69.71l27.07,15.62Z"/></g></g></svg>